<?xml version="1.0" encoding="utf-8"?>
<!-- Generator: Adobe Illustrator 26.5.0, SVG Export Plug-In . SVG Version: 6.00 Build 0)  -->
<svg width="24px" height="24px" version="1.1" id="Layer_1" xmlns="http://www.w3.org/2000/svg" xmlns:xlink="http://www.w3.org/1999/xlink" x="0px" y="0px"
	 viewBox="0 0 24 24" style="enable-background:new 0 0 24 24;" xml:space="preserve">
<style type="text/css">
	.st0{fill:none;stroke-width:2;stroke-miterlimit:10;}
</style>
<path class="st0" d="M19.3,17.9"/>
<polygon points="18.4,21.8 18.4,17.3 21.8,19.4 "/>
<path d="M15.5,19.1c0-0.1,0-0.1,0-0.2h-2.7v-2.5h1.7c0.1,0,0.3-0.1,0.4-0.1c0.3-0.2,0.4-0.6,0.1-0.9c0,0-2.5-3.5-2.6-3.5
	c-0.3-0.2-0.6-0.2-0.9,0.1L9,15.4c-0.1,0.1-0.1,0.3-0.1,0.4c0,0.4,0.3,0.6,0.6,0.6h1.6v2.5H5.3V1.7h8.3v4.2c0,0.5,0.5,1,1,1h4.2v8.9
	c0.5-0.2,1.1-0.2,1.7-0.2V4.9c0-0.3-0.1-0.5-0.3-0.7l-3.9-3.9C16.1,0.1,15.8,0,15.5,0h-11c-0.6,0-1,0.5-1,1v18.6c0,0.6,0.5,1,1,1
	h6.6v2.8c0,0.3,0.3,0.6,0.6,0.6h0.4c0.3,0,0.6-0.3,0.6-0.6v-2.7h2.8C15.6,20.1,15.5,19.6,15.5,19.1z M15.5,2.1L18.4,5h-2.9V2.1z"/>
<path d="M19.5,24c-2.4,0-4.4-2-4.4-4.4s2-4.4,4.4-4.4s4.4,2,4.4,4.4S22,24,19.5,24z M19.5,16.9c-1.5,0-2.7,1.2-2.7,2.7
	c0,1.5,1.2,2.7,2.7,2.7c1.5,0,2.7-1.2,2.7-2.7C22.2,18.1,21,16.9,19.5,16.9z"/>
</svg>
